<svg xmlns="http://www.w3.org/2000/svg" version="1.1" xmlns:xlink="http://www.w3.org/1999/xlink" xmlns:svgjs="http://svgjs.dev/svgjs" width="100%" height="100%" viewBox="0 0 1000 600"><rect width="1000" height="600" x="0" y="0" fill="#fafdf6"/><g><rect width="333.3333333333333" height="333.3333333333333" rx="13.333333333333334" ry="13.333333333333334" y="209.06131810500412" fill="#fad744" transform="matrix(0.6690247408455117,0,0,0.6690247408455117,0,48.62867061171583)" x="186.8389892578125"/><path d="M279.6944475744691 409.1073124015735L279.6944475744691 443.4082886582613Q279.6944475744691 446.2132750343924 278.5190247120904 447.3085554288816Q277.3436018497117 448.3771216674078 274.5119013176175 448.3771216674078L274.5119013176175 448.3771216674078L255.17085240029508 448.3771216674078Q252.36586602416406 448.3771216674078 251.19044316178537 447.3085554288816Q250.01502029940664 446.2132750343924 250.01502029940664 443.4082886582613L250.01502029940664 443.4082886582613L250.01502029940664 316.32904874154474Q250.01502029940664 314.0850596406399 250.950015758117 312.8562084663349L250.950015758117 312.8562084663349Q254.8769966847004 307.70037636544646 262.4905311341989 301.68969127373714L262.4905311341989 301.68969127373714Q263.79952477639335 300.72798165906363 264.8413768589563 300.72798165906363L264.8413768589563 300.72798165906363Q266.0702280332613 300.72798165906363 267.1922225837137 301.68969127373714L267.1922225837137 301.68969127373714Q271.22606013414975 304.78853336546285 274.0043323543176 307.5133772737044Q276.7826045744855 310.23822118194596 278.7327379597956 312.8562084663349L278.7327379597956 312.8562084663349Q279.6944475744691 314.0850596406399 279.6944475744691 316.32904874154474L279.6944475744691 316.32904874154474L279.6944475744691 390.06011919984576L280.81644212492154 390.06011919984576Q295.081801409245 390.06011919984576 300.2109193541703 384.9310012549205Q305.3133231431324 379.8285974659583 305.3133231431324 370.71907028252326L305.3133231431324 370.71907028252326L305.3133231431324 365.6433806495244Q305.3133231431324 363.3726773926563 306.24831860184275 362.17054037431444L306.24831860184275 362.17054037431444Q310.2020136843893 356.9879941174629 317.8155481338878 350.9773090257536L317.8155481338878 350.9773090257536Q319.12454177608225 350.04231356704327 320.1663938586452 350.04231356704327L320.1663938586452 350.04231356704327Q321.36853087698705 350.04231356704327 322.51723958340267 350.9773090257536L322.51723958340267 350.9773090257536Q326.55107713383865 354.0761511174793 329.3293493540065 356.8009950257208Q332.08090741821127 359.5258389339624 334.05775495948456 362.17054037431444L334.05775495948456 362.17054037431444Q334.9927504181949 363.3726773926563 334.9927504181949 365.6433806495244L334.9927504181949 365.6433806495244L334.9927504181949 370.71907028252326Q334.9927504181949 376.06190147515383 332.88233209710586 382.5534413741999Q330.77191377601673 389.0182671172828 325.24208349164417 393.98710012642914Q319.68553905130847 398.9826472915387 309.45401731742106 399.81078612639647L309.45401731742106 399.81078612639647L309.45401731742106 400.2916409337332Q317.334693326551 403.76448120894304 323.0782368586288 409.5080247410208Q328.7950662347435 415.22485411713546 332.6419046934375 421.7431081721446Q336.5154573080946 428.2880763831171 338.6258756291836 434.2453331629Q340.7362939502727 440.20258994268306 341.37743369338835 444.34328411697174L341.37743369338835 444.34328411697174Q342.04528759246716 448.3771216674078 338.6525897851468 448.3771216674078L338.6525897851468 448.3771216674078L313.96870967519385 448.3771216674078Q310.7630109596155 448.3771216674078 310.3088703082419 444.53028320871374L310.3088703082419 444.53028320871374Q309.6410164091631 440.1224474747936 307.42374146422145 434.1384765390475Q305.2331806752429 428.1812197592644 301.5199129963647 422.46439038314975Q297.8066453174865 416.720846851072 292.5973849046718 412.92743670430434Q287.38812449185707 409.1073124015735 280.81644212492154 409.1073124015735L280.81644212492154 409.1073124015735L279.6944475744691 409.1073124015735ZM403.0069915003812 450.72796739216517L403.0069915003812 450.72796739216517Q390.87876469311 450.72796739216517 382.62409050049587 448.938118942634Q374.3427021519186 447.1482704931027 368.7060152436934 444.53028320871374Q363.0693283354682 441.8855817683617 358.8484916932901 439.26759448397274L358.8484916932901 439.26759448397274L358.8484916932901 316.32904874154474Q358.8484916932901 314.0850596406399 359.7834871520005 312.8562084663349L359.7834871520005 312.8562084663349Q363.737182234547 307.70037636544646 371.3507166840455 301.68969127373714L371.3507166840455 301.68969127373714Q372.65971032624 300.72798165906363 373.70156240880294 300.72798165906363L373.70156240880294 300.72798165906363Q374.90369942714483 300.72798165906363 376.05240813356033 301.68969127373714L376.05240813356033 301.68969127373714Q380.08624568399637 304.78853336546285 382.83780374820105 307.5133772737044Q385.61607596836893 310.23822118194596 387.5929235096422 312.8562084663349L387.5929235096422 312.8562084663349Q388.52791896835254 314.0850596406399 388.52791896835254 316.32904874154474L388.52791896835254 316.32904874154474L388.52791896835254 361.8766846587198L388.9019171518367 361.8766846587198Q392.6686131426412 357.09485074131555 399.3204379774662 353.4617255303268Q405.9989769682543 349.85531447530116 417.94020468378346 349.85531447530116L417.94020468378346 349.85531447530116Q431.27056850939664 349.85531447530116 439.8992408854949 355.9995703468263Q448.5546274175563 362.17054037431444 452.7754640597344 372.90963107150185Q456.99630070191256 383.67543592465233 456.99630070191256 397.5667970254916L456.99630070191256 397.5667970254916Q456.99630070191256 412.6068668327465 452.02746769276615 424.65495117212834Q447.03192052765667 436.72974966747324 435.2509777479064 443.72885852981915Q423.47003496815614 450.72796739216517 403.0069915003812 450.72796739216517ZM404.2091285187231 427.9942206675223L404.2091285187231 427.9942206675223Q415.1085041516893 427.9942206675223 420.8520476837672 420.72797024554484Q426.5688770598818 413.4350056676042 426.5688770598818 399.917642750249L426.5688770598818 399.917642750249Q426.5688770598818 386.21328074115183 421.4397591149565 380.0155965577004Q416.3373553259944 373.817912374249 406.66683086733315 373.817912374249L406.66683086733315 373.817912374249Q398.8662973260926 373.817912374249 394.77903146373023 376.99689693386415Q390.69176560136793 380.2025956494425 388.52791896835254 385.0645720347362L388.52791896835254 385.0645720347362L388.52791896835254 423.85352649323374Q390.6116231334785 425.37623338313335 394.40503328024613 426.6852270253279Q398.1984434270138 427.9942206675223 404.2091285187231 427.9942206675223Z " fill="#2b3252" transform="matrix(0.6690247408455117,0,0,0.6690247408455117,0,48.62867061171583)"/><path d="M645.2484965006296 450.72796439879846L645.2484965006296 450.72796439879846Q635.8299456760423 450.72796439879846 629.1537891249625 448.1204419748077Q622.4776325738827 445.51291955081695 618.993443128033 439.1964212651152Q615.5317323237693 432.87992297941344 615.5317323237693 421.88786724379725L615.5317323237693 421.88786724379725L615.5317323237693 402.9158937451059Q615.5317323237693 395.6552925127869 612.9242098997787 392.5757186154874Q610.316687475788 389.47366607660183 607.2371135784886 388.776828187432L607.2371135784886 388.776828187432Q605.0117280614619 388.2148621477787 604.2699328891197 387.54050290019495Q603.5056590751914 386.8661436526111 603.5056590751914 384.97793775937646L603.5056590751914 384.97793775937646L603.5056590751914 377.08793456264584Q603.5056590751914 375.42451508527233 604.2249756059475 374.66024127134403Q604.9442921367036 373.9184460990018 607.0797630873856 373.4463946256932L607.0797630873856 373.4463946256932Q610.5414738916492 372.5697276038343 613.0366031077093 369.42271778177644Q615.5317323237693 366.2532293181325 615.5317323237693 358.745363028366L615.5317323237693 358.745363028366L615.5317323237693 341.1221080248423Q615.5317323237693 324.3755200431775 623.2194277462249 318.0140644743035Q630.9296018102666 311.6526089054296 644.8438809520793 311.6526089054296L644.8438809520793 311.6526089054296Q646.8894373364169 311.6526089054296 647.6537111503452 312.2370535866688Q648.3955063226874 312.82149826790817 648.3955063226874 314.5748323116261L648.3955063226874 314.5748323116261L648.3955063226874 323.2515879638712Q648.3955063226874 324.9150074412446 647.8560189246203 325.54440940565615Q647.2940528849672 326.1738113700677 645.6306334075937 326.4210764275151L645.6306334075937 326.4210764275151Q641.3596915062296 326.9830424671683 638.5723399495498 330.1300522892261Q635.7625097512839 333.29954075287003 635.7625097512839 340.17800507822494L635.7625097512839 340.17800507822494L635.7625097512839 357.01450762623426Q635.7625097512839 375.9640024833394 623.579086011603 380.9542609154597L623.579086011603 380.9542609154597L623.579086011603 381.26896189766546Q635.7625097512839 386.0793911970967 635.7625097512839 405.52341616909666L635.7625097512839 405.52341616909666L635.7625097512839 421.73051675269437Q635.7625097512839 429.4631694583221 638.5948185911359 432.5652219972077Q641.449606072574 435.6447958945072 645.7879838986967 435.95949687671293L645.7879838986967 435.95949687671293Q648.3955063226874 436.18428329257415 648.3955063226874 438.3197542432563L648.3955063226874 438.3197542432563L648.3955063226874 447.8956555589465Q648.3955063226874 449.3792459036308 647.8560189246203 450.0536051512147Q647.2940528849672 450.72796439879846 645.2484965006296 450.72796439879846ZM690.3631301639869 391.9238380094897L690.3631301639869 420.7864138060771Q690.3631301639869 423.1466711726205 689.3740699341972 424.06829547765165Q688.3850097044076 424.96744114109674 686.0247523378644 424.96744114109674L686.0247523378644 424.96744114109674L669.7277371879221 424.96744114109674Q667.3674798213788 424.96744114109674 666.3784195915891 424.06829547765165Q665.3893593617995 423.1466711726205 665.3893593617995 420.7864138060771L665.3893593617995 420.7864138060771L665.3893593617995 313.85551578087Q665.3893593617995 311.96730988763534 666.176111817314 310.93329237467344L666.176111817314 310.93329237467344Q669.5029507720608 306.59491454855095 675.9093636241071 301.5372201916723L675.9093636241071 301.5372201916723Q677.0108170618273 300.72798909457174 677.8874840836863 300.72798909457174L677.8874840836863 300.72798909457174Q678.899022955062 300.72798909457174 679.8431259016793 301.5372201916723L679.8431259016793 301.5372201916723Q683.2598794227706 304.14474261566306 685.5751795061418 306.43756405744807Q687.912958231099 308.73038549923297 689.5763777084724 310.93329237467344L689.5763777084724 310.93329237467344Q690.3631301639869 311.96730988763534 690.3631301639869 313.85551578087L690.3631301639869 313.85551578087L690.3631301639869 375.89656655858107L691.3072331106042 375.89656655858107Q703.3333063591823 375.89656655858107 707.6267269021325 371.58066737404465Q711.942626086669 367.2872468310943 711.942626086669 359.622030050225L711.942626086669 359.622030050225L711.942626086669 355.35108814886075Q711.942626086669 353.44040361403995 712.7293785421834 352.42886474266425L712.7293785421834 352.42886474266425Q716.0562174969302 348.06800827495556 722.4401517073903 343.0103139180769L722.4401517073903 343.0103139180769Q723.5640837866968 342.22356146256254 724.4182721669696 342.22356146256254L724.4182721669696 342.22356146256254Q725.4522896799314 342.22356146256254 726.3963926265487 343.0103139180769L726.3963926265487 343.0103139180769Q729.790667506054 345.6178363420678 732.1284462310113 347.9106577838527Q734.4662249559684 350.2034792256377 736.1296444333418 352.42886474266425L736.1296444333418 352.42886474266425Q736.9163968888563 353.44040361403995 736.9163968888563 355.35108814886075L736.9163968888563 355.35108814886075L736.9163968888563 359.622030050225Q736.9163968888563 364.1177583674504 735.1405842035523 369.5800682728793Q733.3647715182482 375.01989953672205 728.6892140683337 379.2009268717418Q724.0361352600054 383.4044328483476 715.4043368909325 384.10127073751744L715.4043368909325 384.10127073751744L715.4043368909325 384.5058862860677Q722.0580148004262 387.42810969226434 726.8684440998574 392.26101763328165Q731.7013520408748 397.0714469327129 734.9382764292772 402.5562354797279Q738.1752008176794 408.0635026683291 739.9510135029834 413.07623974203545Q741.7268261882875 418.08897681574183 742.2887922279407 421.5731662615915L742.2887922279407 421.5731662615915Q742.8282796260078 424.96744114109674 739.9959707861557 424.96744114109674L739.9959707861557 424.96744114109674L719.2032273189881 424.96744114109674Q716.528268970239 424.96744114109674 716.1236534216886 421.73051675269437L716.1236534216886 421.73051675269437Q715.5841660236216 418.0215408909834 713.718438771973 412.9863251756909Q711.8527115203244 407.97358810198455 708.7281803398528 403.1631588025533Q705.6261278009672 398.330250861536 701.2203140500864 395.1382837563059Q696.8369789407915 391.9238380094897 691.3072331106042 391.9238380094897L691.3072331106042 391.9238380094897L690.3631301639869 391.9238380094897ZM781.9635946274551 371.69306058197526L781.9635946274551 420.7864138060771Q781.9635946274551 423.1466711726205 780.9745343976656 424.06829547765165Q779.985474167876 424.96744114109674 777.6027381597465 424.96744114109674L777.6027381597465 424.96744114109674L761.3282016513905 424.96744114109674Q758.967944284847 424.96744114109674 757.9788840550574 424.06829547765165Q756.9898238252679 423.1466711726205 756.9898238252679 420.7864138060771L756.9898238252679 420.7864138060771L756.9898238252679 313.85551578087Q756.9898238252679 311.96730988763534 757.7765762807824 310.93329237467344L757.7765762807824 310.93329237467344Q761.1034152355292 306.59491454855095 767.4873494459893 301.5372201916723L767.4873494459893 301.5372201916723Q768.5888028837095 300.72798909457174 769.4654699055684 300.72798909457174L769.4654699055684 300.72798909457174Q770.4994874185303 300.72798909457174 771.4435903651477 301.5372201916723L771.4435903651477 301.5372201916723Q774.8378652446528 304.14474261566306 777.1756439696101 306.43756405744807Q779.5134226945673 308.73038549923297 781.1543635303545 310.93329237467344L781.1543635303545 310.93329237467344Q781.9635946274551 311.96730988763534 781.9635946274551 313.85551578087L781.9635946274551 313.85551578087L781.9635946274551 352.18159968521684L782.278295609661 352.18159968521684Q784.0091510117927 349.88877824343194 786.7740239268863 347.55099951847467Q789.5388968419801 345.2356994351036 794.1694970087223 343.63971588248853Q798.7776185338784 342.06621097145967 805.970783841439 342.06621097145967L805.970783841439 342.06621097145967Q813.2538637153442 342.06621097145967 819.9749775495962 345.0783489440007Q826.6736127422622 348.06800827495556 830.9445546436264 355.1937376577579Q835.2154965449905 362.2969883989741 835.2154965449905 374.63776262975796L835.2154965449905 374.63776262975796L835.2154965449905 420.7864138060771Q835.2154965449905 423.1466711726205 834.2264363152009 424.06829547765165Q833.2373760854114 424.96744114109674 830.8771187188679 424.96744114109674L830.8771187188679 424.96744114109674L814.6025822105119 424.96744114109674Q812.2198462023824 424.96744114109674 811.2307859725928 424.06829547765165Q810.2417257428032 423.1466711726205 810.2417257428032 420.7864138060771L810.2417257428032 420.7864138060771L810.2417257428032 378.97614045588045Q810.2417257428032 370.20947023729093 806.6226644474367 366.20827203496026Q802.9811245104842 362.2295524742158 796.7320621495408 362.2295524742158L796.7320621495408 362.2295524742158Q790.5729143549419 362.2295524742158 787.1786394754367 364.9045108229649Q783.7618859543453 367.60194781330017 781.9635946274551 371.69306058197526L781.9635946274551 371.69306058197526ZM884.7584226008148 426.9455616006759L884.7584226008148 426.9455616006759Q856.6376419765697 426.9455616006759 856.6376419765697 392.89041959769327L856.6376419765697 392.89041959769327L856.5477274102252 352.74356572487Q856.5477274102252 350.8328811900492 857.3569585073259 349.8213423186735L857.3569585073259 349.8213423186735Q860.6613188204865 345.4604858509648 867.0677316725327 340.4027914940863L867.0677316725327 340.4027914940863Q868.169185110253 339.6160390385718 869.0458521321119 339.6160390385718L869.0458521321119 339.6160390385718Q870.0798696450737 339.6160390385718 871.0239725916912 340.4027914940863L871.0239725916912 340.4027914940863Q874.4182474711964 343.0103139180769 876.7560261961536 345.3031353598619Q879.0713262795247 347.59595680164693 880.7347457568981 349.8213423186735L880.7347457568981 349.8213423186735Q881.5214982124126 350.8328811900492 881.5214982124126 352.74356572487L881.5214982124126 352.74356572487L881.5214982124126 390.6650340806666Q881.5214982124126 407.81623761088167 895.1210763720195 407.81623761088167L895.1210763720195 407.81623761088167Q901.8421902062715 407.81623761088167 905.8658670501883 403.11820151938105Q909.889543894105 398.42016542788053 909.889543894105 390.35033309846085L909.889543894105 390.35033309846085L909.889543894105 352.74356572487Q909.889543894105 350.8328811900492 910.6987749912056 349.8213423186735L910.6987749912056 349.8213423186735Q914.0031353043663 345.4604858509648 920.4095481564126 340.4027914940863L920.4095481564126 340.4027914940863Q921.5110015941328 339.6160390385718 922.3876686159917 339.6160390385718L922.3876686159917 339.6160390385718Q923.4216861289536 339.6160390385718 924.3657890755709 340.4027914940863L924.3657890755709 340.4027914940863Q927.7600639550761 343.0103139180769 930.0978426800334 345.3031353598619Q932.4131427634046 347.59595680164693 934.0765622407779 349.8213423186735L934.0765622407779 349.8213423186735Q934.8633146962924 350.8328811900492 934.8633146962924 352.74356572487L934.8633146962924 352.74356572487L934.8633146962924 421.3259012041441Q934.8633146962924 422.8319701904146 933.8517758249167 423.91094498654877Q932.8177583119549 424.96744114109674 931.2442534009259 424.96744114109674L931.2442534009259 424.96744114109674L919.3755306434507 424.96744114109674Q918.1167267146276 424.96744114109674 917.127666484838 424.6077828757187Q916.1386062550484 424.2481246103407 915.2619392331895 423.2365857389649L915.2619392331895 423.2365857389649L910.3840740089998 416.89760881167706L909.8221079693466 416.89760881167706Q908.5633040405236 418.71837878015333 905.9108243333607 421.10111478828287Q903.2583446261975 423.4613721548262 898.2456075524912 425.21470619854415Q893.2328704787848 426.9455616006759 884.7584226008148 426.9455616006759ZM978.7416230724126 426.9455616006759L978.7416230724126 426.9455616006759Q970.2671751944428 426.9455616006759 964.7149507226693 425.5294071807499Q959.1402476093098 424.0907741192377 955.7684513713906 422.0901750180724Q952.4191337750577 420.067097275321 950.5084492402369 418.4036777979476L950.5084492402369 418.4036777979476Q949.0922948203109 417.05495930277993 950.1937482580312 415.4140184669926L950.1937482580312 415.4140184669926L958.2635805874507 403.4778597847592Q959.9944359895826 400.93777328552676 962.2198215066092 403.1631588025533L962.2198215066092 403.1631588025533Q964.5126429483942 405.3660656779938 968.4239265843803 407.45657934550366Q972.3352102203664 409.5470930130135 978.1796570327595 409.5470930130135L978.1796570327595 409.5470930130135Q983.3947018807411 409.5470930130135 986.744019477074 407.7712803277094Q990.115815714993 405.9954676424054 990.115815714993 402.60119276290015L990.115815714993 402.60119276290015Q990.115815714993 400.2409353963568 988.6097467287225 398.7348664100863Q987.103677742452 397.22879742381576 983.3047873143964 395.6552925127869Q979.5283755279271 394.05930896017185 972.7173471273305 391.60913702728396L972.7173471273305 391.60913702728396Q962.6918729799178 387.9900757319175 957.5442640566947 382.8424668086943Q952.4191337750577 377.71733652705734 952.4191337750577 367.8267342291614L952.4191337750577 367.8267342291614Q952.4191337750577 358.745363028366 957.4318708487641 353.05826670707586Q962.4446079224705 347.3711703857856 970.3121324776149 344.7186906786226Q978.1796570327595 342.06621097145967 986.7215408354879 342.06621097145967L986.7215408354879 342.06621097145967Q997.533767438415 342.06621097145967 1001.9171025477098 344.0892887142111Q1006.3004376570046 346.0898878153764 1007.5817202274138 347.21381989468273L1007.5817202274138 347.21381989468273Q1008.7506095898924 348.22535876605843 1009.2451397047872 349.5740772612261L1009.2451397047872 349.5740772612261Q1010.2566785761629 352.6536511585256 1010.8186446158162 357.7113455154041L1010.8186446158162 357.7113455154041Q1011.133345598022 360.6335689216007 1009.3125756295457 361.5776718682181L1009.3125756295457 361.5776718682181Q1008.3684726829283 362.13963790787125 1006.3004376570046 362.76903987228275Q1004.254881272667 363.39844183669436 1002.2093248883294 363.870493310003Q1000.1412898624058 364.3650234248978 999.12975099103 364.3650234248978L999.12975099103 364.3650234248978Q998.8150500088242 364.3650234248978 998.4553917434462 364.16271565062266Q998.0957334780682 363.9604078763475 997.2190664562091 363.17365542083303L997.2190664562091 363.17365542083303Q996.1850489432474 362.13963790787125 993.7123983687734 360.7909194127036Q991.2172691527132 359.46467955912203 986.8788913265906 359.46467955912203L986.8788913265906 359.46467955912203Q982.6079494252266 359.46467955912203 979.7082046606162 360.83587669587587Q976.8309385375918 362.2295524742158 976.8309385375918 365.69126327847925L976.8309385375918 365.69126327847925Q976.8309385375918 369.4901537065348 980.5174357577167 371.3783595997695Q984.1814543362555 373.2890441345903 992.6334235726392 376.2787034655453L992.6334235726392 376.2787034655453Q999.2871014821329 378.5715249073302 1004.2099239894948 381.31391918083773Q1009.1552251384427 384.0338348127591 1011.852662128778 388.41716992205386Q1014.5276204775272 392.80050503134873 1014.5276204775272 400.2409353963568L1014.5276204775272 400.2409353963568Q1014.5276204775272 409.88427263680535 1009.2676183463733 415.75119809078456Q1004.0300948568057 421.64060218634995 995.8478693194554 424.29308189351286Q987.6656437821051 426.9455616006759 978.7416230724126 426.9455616006759ZM1054.9217394077978 371.69306058197526L1054.9217394077978 420.7864138060771Q1054.9217394077978 423.1466711726205 1053.9326791780081 424.06829547765165Q1052.9436189482185 424.96744114109674 1050.560882940089 424.96744114109674L1050.560882940089 424.96744114109674L1034.286346431733 424.96744114109674Q1031.9260890651894 424.96744114109674 1030.9370288353998 424.06829547765165Q1029.9479686056102 423.1466711726205 1029.9479686056102 420.7864138060771L1029.9479686056102 420.7864138060771L1029.9479686056102 313.85551578087Q1029.9479686056102 311.96730988763534 1030.7347210611247 310.93329237467344L1030.7347210611247 310.93329237467344Q1034.0390813742856 306.59491454855095 1040.445494226332 301.5372201916723L1040.445494226332 301.5372201916723Q1041.546947664052 300.72798909457174 1042.4236146859112 300.72798909457174L1042.4236146859112 300.72798909457174Q1043.457632198873 300.72798909457174 1044.4017351454902 301.5372201916723L1044.4017351454902 301.5372201916723Q1047.7960100249952 304.14474261566306 1050.1337887499526 306.43756405744807Q1052.47156747491 308.73038549923297 1054.1125083106972 310.93329237467344L1054.1125083106972 310.93329237467344Q1054.9217394077978 311.96730988763534 1054.9217394077978 313.85551578087L1054.9217394077978 313.85551578087L1054.9217394077978 352.18159968521684L1055.2364403900033 352.18159968521684Q1056.9672957921352 349.88877824343194 1059.732168707229 347.55099951847467Q1062.4970416223227 345.2356994351036 1067.127641789065 343.63971588248853Q1071.735763314221 342.06621097145967 1078.9289286217818 342.06621097145967L1078.9289286217818 342.06621097145967Q1086.2120084956869 342.06621097145967 1092.9331223299387 345.0783489440007Q1099.6317575226046 348.06800827495556 1103.902699423969 355.1937376577579Q1108.173641325333 362.2969883989741 1108.173641325333 374.63776262975796L1108.173641325333 374.63776262975796L1108.173641325333 420.7864138060771Q1108.173641325333 423.1466711726205 1107.1845810955433 424.06829547765165Q1106.195520865754 424.96744114109674 1103.8352634992104 424.96744114109674L1103.8352634992104 424.96744114109674L1087.5607269908546 424.96744114109674Q1085.177990982725 424.96744114109674 1084.1889307529354 424.06829547765165Q1083.1998705231458 423.1466711726205 1083.1998705231458 420.7864138060771L1083.1998705231458 420.7864138060771L1083.1998705231458 378.97614045588045Q1083.1998705231458 370.20947023729093 1079.5583305861933 366.20827203496026Q1075.9392692908266 362.2295524742158 1069.6902069298833 362.2295524742158L1069.6902069298833 362.2295524742158Q1063.5310591352845 362.2295524742158 1060.1367842557793 364.9045108229649Q1056.720030734688 367.60194781330017 1054.9217394077978 371.69306058197526L1054.9217394077978 371.69306058197526ZM1150.4559661488383 426.9455616006759L1150.4559661488383 426.9455616006759Q1138.8345084488105 426.9455616006759 1132.001001406628 420.426755540699Q1125.1674943644452 413.9079494807221 1125.1674943644452 402.4438422717973L1125.1674943644452 402.4438422717973Q1125.1674943644452 396.50948089305973 1127.3479225982996 391.4293078945949Q1129.505872190568 386.3266562545441 1134.9232248128244 382.41537261855797Q1140.340577435081 378.50408898257183 1150.0963078834602 376.1213529744423Q1159.8520383318396 373.76109560789894 1175.0251214024752 373.35648005934866L1175.0251214024752 373.35648005934866Q1175.0251214024752 366.163314751788 1171.428538748695 363.01630492973015Q1167.8319560949146 359.84681646608624 1160.6612694289402 359.84681646608624L1160.6612694289402 359.84681646608624Q1154.164942010549 359.84681646608624 1150.051350600288 362.0722019831128Q1145.9602378316129 364.27510885855327 1144.9262203186508 365.06186131406776L1144.9262203186508 365.06186131406776Q1143.8247668809308 366.0059642606851 1142.2287833283158 365.7811778448238L1142.2287833283158 365.7811778448238Q1140.0933123776335 365.46647686261804 1137.688097727918 364.67972440710355Q1135.2828830782025 363.870493310003 1132.518010163109 362.8589544386273L1132.518010163109 362.8589544386273Q1132.1133946145585 362.7016039475244 1131.6413431412498 362.3419456821464Q1131.1692916679413 361.9822874167684 1131.1018557431828 361.2629708860122L1131.1018557431828 361.2629708860122Q1131.1018557431828 360.88083397904813 1131.1692916679413 360.2739106562227Q1131.2592062342856 359.68946597498336 1131.5739072164915 358.1159610639545L1131.5739072164915 358.1159610639545Q1131.8886081986973 356.51997751133945 1132.518010163109 354.20467742796836Q1133.1474121275203 351.8668987030111 1133.7093781671736 350.608094774188L1133.7093781671736 350.608094774188Q1134.4062160563435 349.25937627902033 1136.0696355337168 348.06800827495556L1136.0696355337168 348.06800827495556Q1137.4183540288846 346.9665548372353 1144.206903787895 344.51638290434755Q1151.0179321884914 342.06621097145967 1163.8981938173424 342.06621097145967L1163.8981938173424 342.06621097145967Q1199.3694902402513 342.06621097145967 1199.3694902402513 376.593404447751L1199.3694902402513 376.593404447751L1199.3694902402513 421.3259012041441Q1199.3694902402513 422.8319701904146 1198.5377805015644 423.91094498654877Q1197.7060707628777 424.96744114109674 1195.7279503032987 424.96744114109674L1195.7279503032987 424.96744114109674L1183.8817061874092 424.96744114109674Q1182.6229022585862 424.96744114109674 1181.6338420287966 424.6077828757187Q1180.644781799007 424.2481246103407 1179.7681147771482 423.2365857389649L1179.7681147771482 423.2365857389649L1174.8677709113724 416.89760881167706L1174.3282835133055 416.89760881167706Q1170.6867435763527 422.2025682260031 1164.572553064926 424.56282559254646Q1158.4358839119136 426.9455616006759 1150.4559661488383 426.9455616006759ZM1159.1552004426694 408.60299006639616L1159.1552004426694 408.60299006639616Q1166.4158016749886 408.60299006639616 1170.1247775366996 404.89401420468516Q1173.8562320399967 401.18503834297417 1174.8677709113724 397.22879742381576L1174.8677709113724 397.22879742381576L1174.8677709113724 388.4621272052261Q1163.8981938173424 388.4621272052261 1158.3909266287412 390.1480253241857Q1152.906138081726 391.85640208473137 1151.0853681132498 394.57631771665274Q1149.2645981447736 397.3187119901603 1149.2645981447736 400.46572181221813L1149.2645981447736 400.46572181221813Q1149.2645981447736 405.05136469578804 1152.1193856262116 406.82717738109204Q1154.9516944660636 408.60299006639616 1159.1552004426694 408.60299006639616ZM1247.586176442494 419.0330797623592L1231.0643748766902 426.63086061847014Q1229.400955399317 427.3276985076401 1228.6816388685606 427.3276985076401L1228.6816388685606 427.3276985076401Q1227.984800979391 427.3276985076401 1227.1980485238764 426.788211109573L1227.1980485238764 426.788211109573Q1225.3772785554002 425.5294071807499 1223.0394998304428 420.58410603180187Q1220.7017211054858 415.63880488285395 1220.7017211054858 405.3660656779938L1220.7017211054858 405.3660656779938L1220.7017211054858 313.85551578087Q1220.7017211054858 311.96730988763534 1221.5109522025864 310.93329237467344L1221.5109522025864 310.93329237467344Q1224.8153125157469 306.59491454855095 1231.2217253677932 301.5372201916723L1231.2217253677932 301.5372201916723Q1232.3231788055136 300.72798909457174 1233.1998458273724 300.72798909457174L1233.1998458273724 300.72798909457174Q1234.2338633403342 300.72798909457174 1235.1779662869517 301.5372201916723L1235.1779662869517 301.5372201916723Q1238.572241166457 304.14474261566306 1240.9100198914139 306.43756405744807Q1243.2253199747852 308.73038549923297 1244.8887394521585 310.93329237467344L1244.8887394521585 310.93329237467344Q1245.675491907673 311.96730988763534 1245.675491907673 313.85551578087L1245.675491907673 313.85551578087L1245.675491907673 400.55563637856255Q1245.675491907673 405.77068122654407 1246.5521589295317 409.4346998050828Q1247.428825951391 413.1211970252077 1248.5977153138697 415.3241039006482L1248.5977153138697 415.3241039006482Q1249.9464338090374 417.93162632463896 1247.586176442494 419.0330797623592L1247.586176442494 419.0330797623592ZM1266.1535343926348 450.72796439879846L1266.1535343926348 450.72796439879846Q1264.0854993667112 450.72796439879846 1263.546011968644 450.0536051512147Q1262.9840459289908 449.3792459036308 1262.9840459289908 447.8956555589465L1262.9840459289908 447.8956555589465L1262.9840459289908 438.3197542432563Q1262.9840459289908 436.18428329257415 1265.5915683529815 435.95949687671293L1265.5915683529815 435.95949687671293Q1269.9524248206903 435.6447958945072 1272.7847336605423 432.5652219972077Q1275.6395211419804 429.4631694583221 1275.6395211419804 421.73051675269437L1275.6395211419804 421.73051675269437L1275.6395211419804 405.52341616909666Q1275.6395211419804 386.0793911970967 1287.8004662400754 381.26896189766546L1287.8004662400754 381.26896189766546L1287.8004662400754 380.9542609154597Q1275.6395211419804 375.9640024833394 1275.6395211419804 357.01450762623426L1275.6395211419804 357.01450762623426L1275.6395211419804 340.17800507822494Q1275.6395211419804 333.29954075287003 1272.8296909437145 330.1300522892261Q1270.0198607454486 326.9830424671683 1265.7489188440845 326.4210764275151L1265.7489188440845 326.4210764275151Q1264.0854993667112 326.1738113700677 1263.546011968644 325.54440940565615Q1262.9840459289908 324.9150074412446 1262.9840459289908 323.2515879638712L1262.9840459289908 323.2515879638712L1262.9840459289908 314.5748323116261Q1262.9840459289908 312.82149826790817 1263.7707983845053 312.2370535866688Q1264.5800294816063 311.6526089054296 1266.535671299599 311.6526089054296L1266.535671299599 311.6526089054296Q1280.4499504414116 311.6526089054296 1288.1601245054535 318.0140644743035Q1295.870298569495 324.3755200431775 1295.870298569495 341.1221080248423L1295.870298569495 341.1221080248423L1295.870298569495 358.745363028366Q1295.870298569495 366.2532293181325 1298.3879064271414 369.42271778177644Q1300.9279929263735 372.5697276038343 1304.3222678058792 373.4463946256932L1304.3222678058792 373.4463946256932Q1306.457738756561 373.9184460990018 1307.1545766457311 374.66024127134403Q1307.873893176487 375.42451508527233 1307.873893176487 377.08793456264584L1307.873893176487 377.08793456264584L1307.873893176487 384.97793775937646Q1307.873893176487 386.8661436526111 1307.1545766457311 387.54050290019495Q1306.457738756561 388.2148621477787 1304.1649173147762 388.776828187432L1304.1649173147762 388.776828187432Q1301.0853434174765 389.47366607660183 1298.4778209934857 392.5757186154874Q1295.870298569495 395.6552925127869 1295.870298569495 402.9158937451059L1295.870298569495 402.9158937451059L1295.870298569495 421.88786724379725Q1295.870298569495 432.87992297941344 1292.3861091236454 439.1964212651152Q1288.9019196777958 445.51291955081695 1282.2707204098883 448.1204419748077Q1275.6395211419804 450.72796439879846 1266.1535343926348 450.72796439879846Z " fill="#f2d80f" transform="matrix(0.6690247408455117,0,0,0.6690247408455117,0,48.62867061171583)"/></g></svg>